<svg id="svg" version="1.1" xmlns="http://www.w3.org/2000/svg" xmlns:xlink="http://www.w3.org/1999/xlink" width="400" height="294.04761904761904" viewBox="0, 0, 400,294.04761904761904"><g id="svgg"><path id="path0" d="M287.941 26.029 C 288.820 26.919,289.605 27.647,289.686 27.647 C 289.767 27.647,289.114 26.919,288.235 26.029 C 287.357 25.140,286.572 24.412,286.491 24.412 C 286.410 24.412,287.063 25.140,287.941 26.029 M236.396 29.520 C 234.636 30.176,233.338 31.348,232.529 33.012 L 231.777 34.559 231.760 64.706 C 231.751 81.287,231.748 95.398,231.754 96.065 L 231.765 97.278 235.809 97.439 C 238.776 97.558,240.579 97.795,242.580 98.330 L 245.307 99.059 245.227 66.809 C 245.147 34.731,245.144 34.552,244.529 33.235 C 243.007 29.980,239.482 28.370,236.396 29.520 M211.846 72.514 C 208.227 74.318,207.970 75.303,207.954 87.426 L 207.941 97.353 214.723 97.353 L 221.505 97.353 221.414 87.132 C 221.327 77.287,221.300 76.868,220.683 75.715 C 218.808 72.211,215.129 70.879,211.846 72.514 M314.118 73.235 C 314.693 73.607,315.294 73.607,315.294 73.235 C 315.294 73.074,314.930 72.943,314.485 72.946 C 313.855 72.949,313.774 73.013,314.118 73.235 M315.816 73.283 C 315.591 73.425,315.941 73.522,316.691 73.525 C 317.379 73.527,317.941 73.478,317.941 73.416 C 317.941 73.170,316.168 73.059,315.816 73.283 M319.248 73.557 C 319.157 73.704,319.422 73.824,319.836 73.824 C 320.737 73.824,320.810 73.656,320.000 73.444 C 319.677 73.360,319.338 73.410,319.248 73.557 M324.694 74.546 C 325.416 74.782,326.066 74.914,326.140 74.840 C 326.377 74.603,326.059 74.483,324.706 74.299 L 323.382 74.118 324.694 74.546 M328.235 75.234 C 328.235 75.388,328.649 75.597,329.154 75.699 C 330.436 75.955,330.761 75.934,330.426 75.619 C 330.003 75.220,328.235 74.909,328.235 75.234 M336.237 77.849 C 336.304 78.234,334.774 79.067,329.412 81.564 C 325.610 83.335,317.404 87.168,311.176 90.083 C 304.949 92.997,299.390 95.575,298.824 95.812 C 298.257 96.049,297.728 96.340,297.647 96.459 C 297.503 96.672,276.251 106.709,272.206 108.475 C 263.707 112.185,260.145 114.108,260.251 114.930 C 260.537 117.161,260.593 156.299,260.314 158.886 C 258.586 174.873,244.071 189.993,228.465 192.064 C 223.359 192.741,183.599 192.282,180.147 191.505 C 165.725 188.262,156.007 179.949,152.044 167.463 L 151.379 165.368 149.439 166.232 C 145.600 167.943,141.615 169.857,141.458 170.066 C 141.271 170.315,129.941 175.700,123.971 178.377 C 121.706 179.392,115.051 182.489,109.181 185.259 C 103.312 188.028,98.453 190.294,98.384 190.294 C 98.091 190.294,89.839 194.242,89.697 194.450 C 89.533 194.690,78.376 200.019,74.853 201.540 C 73.721 202.029,70.279 203.615,67.206 205.064 C 61.729 207.646,61.600 207.689,60.735 207.254 C 60.250 207.009,59.324 206.652,58.676 206.460 C 58.029 206.269,57.335 205.902,57.132 205.647 C 56.930 205.391,56.765 205.289,56.765 205.421 C 56.765 205.553,56.553 205.484,56.294 205.269 C 55.722 204.795,55.000 204.659,55.000 205.026 C 55.000 205.267,55.236 205.341,55.776 205.269 C 55.879 205.255,56.045 205.369,56.144 205.521 C 56.632 206.274,64.362 209.348,66.917 209.806 C 67.400 209.893,68.787 210.198,70.000 210.485 C 72.706 211.125,314.739 211.505,320.441 210.878 C 350.915 207.530,375.222 184.721,380.929 154.118 C 383.134 142.299,381.151 125.317,376.346 114.853 C 375.826 113.721,375.388 112.677,375.372 112.533 C 375.357 112.389,375.218 112.191,375.064 112.092 C 374.909 111.993,374.420 111.184,373.975 110.294 C 372.532 107.403,370.266 103.827,367.977 100.826 C 366.744 99.209,365.384 97.403,364.955 96.811 C 363.080 94.224,353.407 85.588,352.384 85.588 C 352.205 85.588,352.059 85.471,352.059 85.328 C 352.059 85.186,351.827 84.989,351.544 84.892 C 351.261 84.795,350.195 84.181,349.174 83.527 C 348.154 82.874,347.174 82.429,346.996 82.539 C 346.819 82.648,346.754 82.607,346.853 82.448 C 347.218 81.858,337.683 77.409,336.982 77.842 C 336.802 77.953,336.761 77.890,336.884 77.693 C 337.009 77.490,336.904 77.353,336.622 77.353 C 336.342 77.353,336.186 77.554,336.237 77.849 M188.737 86.357 C 186.818 86.947,185.164 88.643,184.575 90.625 C 183.987 92.605,183.884 122.536,184.459 124.453 C 186.093 129.907,193.205 130.766,196.609 125.922 L 197.500 124.655 197.500 107.662 L 197.500 90.669 196.505 89.210 C 194.490 86.258,192.016 85.349,188.737 86.357 M164.776 103.316 C 163.323 103.870,161.839 105.180,161.102 106.557 C 160.416 107.841,159.908 130.013,160.446 135.223 C 161.164 142.186,169.886 143.745,173.189 137.500 L 173.967 136.029 174.041 123.676 C 174.124 109.853,173.973 107.826,172.729 106.055 C 170.908 103.465,167.481 102.284,164.776 103.316 M207.941 109.356 C 207.941 114.176,209.383 118.993,211.421 120.978 C 213.691 123.190,214.435 123.345,223.676 123.524 C 234.892 123.741,235.178 123.916,235.489 130.767 C 235.884 139.478,235.036 140.359,226.029 140.586 C 214.276 140.884,210.976 145.581,210.304 162.968 C 209.992 171.069,209.392 172.432,205.856 173.087 C 201.800 173.839,200.000 171.217,200.000 164.557 C 200.000 149.885,204.055 138.821,211.194 134.013 C 212.206 133.332,212.605 132.912,212.332 132.818 C 212.101 132.738,211.126 132.404,210.166 132.075 C 209.206 131.746,207.904 131.135,207.272 130.716 C 206.640 130.298,206.094 129.999,206.058 130.051 C 206.023 130.104,205.560 130.838,205.030 131.683 C 201.143 137.880,192.610 140.906,185.663 138.552 C 183.753 137.905,183.767 137.898,183.251 139.706 C 180.770 148.416,170.655 153.810,162.132 150.969 L 160.294 150.356 160.296 153.487 C 160.305 169.161,168.237 179.044,182.941 181.701 C 187.137 182.459,225.401 182.442,228.971 181.680 C 237.753 179.806,246.769 170.902,249.617 161.291 C 250.234 159.209,250.584 120.523,250.014 117.439 C 249.117 112.586,246.228 109.716,240.684 108.168 C 238.479 107.553,237.743 107.521,223.162 107.422 L 207.941 107.319 207.941 109.356 M42.941 195.774 C 42.941 195.928,43.537 196.639,44.265 197.353 C 44.993 198.067,45.588 198.572,45.588 198.474 C 45.588 198.377,44.993 197.666,44.265 196.896 C 43.537 196.125,42.941 195.621,42.941 195.774 M45.882 198.703 C 45.882 199.014,47.195 199.980,47.631 199.990 C 47.864 199.996,47.607 199.669,47.059 199.265 C 46.002 198.485,45.882 198.428,45.882 198.703 M48.382 200.790 C 48.868 201.050,49.362 201.408,49.481 201.587 C 49.632 201.815,49.698 201.804,49.701 201.552 C 49.706 201.211,48.238 200.281,47.735 200.306 C 47.606 200.312,47.897 200.530,48.382 200.790 M50.108 201.995 C 50.217 202.172,51.329 202.935,52.580 203.691 C 54.346 204.759,54.694 204.894,54.141 204.298 C 53.749 203.877,53.369 203.592,53.295 203.666 C 53.221 203.740,52.615 203.431,51.948 202.980 C 50.185 201.787,49.877 201.622,50.108 201.995 M344.412 228.064 C 344.412 231.416,344.316 232.637,344.044 232.746 C 343.824 232.835,343.884 232.904,344.191 232.918 C 344.661 232.939,344.706 232.530,344.706 228.235 C 344.706 225.647,344.640 223.529,344.559 223.529 C 344.478 223.529,344.412 225.570,344.412 228.064 M92.353 244.093 C 92.353 251.014,92.249 254.708,92.051 254.806 C 91.886 254.889,91.919 254.922,92.125 254.880 C 92.544 254.795,92.991 233.529,92.574 233.529 C 92.452 233.529,92.353 238.283,92.353 244.093 M100.882 233.611 C 100.882 233.667,101.313 234.028,101.838 234.413 C 102.430 234.846,102.635 234.917,102.377 234.599 C 101.985 234.117,100.882 233.387,100.882 233.611 M74.249 242.941 C 74.249 248.037,74.289 250.121,74.338 247.574 C 74.387 245.026,74.387 240.857,74.338 238.309 C 74.289 235.761,74.249 237.846,74.249 242.941 M280.394 235.000 C 282.201 236.146,282.607 236.146,280.882 235.000 C 280.154 234.516,279.434 234.120,279.281 234.119 C 279.128 234.118,279.629 234.515,280.394 235.000 M133.243 234.899 C 133.643 235.167,134.243 235.597,134.576 235.855 C 134.909 236.113,134.721 235.893,134.159 235.368 C 133.597 234.842,132.998 234.412,132.827 234.412 C 132.656 234.412,132.843 234.631,133.243 234.899 M233.823 235.221 C 234.207 235.746,234.568 236.176,234.624 236.176 C 234.848 236.176,234.119 235.073,233.636 234.682 C 233.319 234.424,233.390 234.629,233.823 235.221 M201.582 235.471 C 202.048 235.940,202.628 236.625,202.872 236.994 C 203.116 237.363,203.377 237.604,203.452 237.528 C 203.668 237.312,202.034 235.301,201.351 234.943 C 200.895 234.703,200.955 234.840,201.582 235.471 M110.861 235.957 C 110.445 236.321,109.917 236.882,109.688 237.206 C 109.459 237.529,109.833 237.265,110.518 236.618 C 111.203 235.971,111.764 235.408,111.764 235.368 C 111.765 235.208,111.587 235.324,110.861 235.957 M103.072 247.353 C 103.072 252.449,103.112 254.533,103.161 251.985 C 103.210 249.438,103.210 245.268,103.161 242.721 C 103.112 240.173,103.072 242.257,103.072 247.353 M302.185 244.706 C 302.185 248.346,302.227 249.835,302.278 248.015 C 302.330 246.195,302.330 243.217,302.278 241.397 C 302.227 239.577,302.185 241.066,302.185 244.706 M205.000 253.029 L 205.147 262.794 205.224 253.254 C 205.267 248.007,205.201 243.613,205.078 243.489 C 204.954 243.365,204.919 247.658,205.000 253.029 M137.716 253.137 C 137.663 260.378,137.561 262.633,137.279 262.746 C 136.991 262.863,136.993 262.900,137.289 262.918 C 137.925 262.957,137.952 262.487,137.868 252.938 L 137.785 243.676 137.716 253.137 M44.709 246.029 C 44.709 246.191,44.973 246.721,45.294 247.206 C 46.056 248.356,46.057 247.947,45.295 246.698 C 44.972 246.169,44.708 245.868,44.709 246.029 M335.672 248.088 C 335.675 248.897,335.732 249.193,335.799 248.746 C 335.867 248.299,335.865 247.637,335.795 247.275 C 335.725 246.914,335.670 247.279,335.672 248.088 M144.199 247.426 C 143.662 248.122,143.422 248.747,143.889 248.235 C 144.110 247.993,144.477 247.629,144.705 247.426 C 144.933 247.223,144.976 247.059,144.801 247.059 C 144.626 247.059,144.356 247.224,144.199 247.426 M46.176 248.349 C 46.176 248.411,46.540 248.696,46.985 248.982 L 47.794 249.503 47.234 248.869 C 46.738 248.308,46.176 248.032,46.176 248.349 M152.393 253.547 C 152.357 254.221,153.259 255.588,153.739 255.588 C 153.842 255.588,153.650 255.290,153.312 254.926 C 152.975 254.563,152.639 253.934,152.566 253.529 L 152.433 252.794 152.393 253.547 M274.794 253.302 C 274.126 254.163,274.085 254.512,274.723 253.905 C 275.100 253.546,275.335 253.179,275.246 253.089 C 275.157 253.000,274.953 253.096,274.794 253.302 M284.118 257.941 C 283.772 258.426,283.556 258.824,283.636 258.824 C 283.717 258.824,284.066 258.426,284.412 257.941 C 284.757 257.456,284.974 257.059,284.893 257.059 C 284.812 257.059,284.463 257.456,284.118 257.941 M143.198 258.753 C 143.350 259.038,143.785 259.534,144.164 259.854 L 144.853 260.437 144.191 259.685 C 143.827 259.271,143.529 258.776,143.529 258.584 C 143.529 258.392,143.392 258.235,143.225 258.235 C 143.025 258.235,143.016 258.414,143.198 258.753 M354.039 259.414 C 353.616 260.060,353.322 260.588,353.385 260.588 C 353.613 260.588,355.079 258.510,354.945 258.376 C 354.870 258.301,354.462 258.768,354.039 259.414 " stroke="none" fill="#a1e2fc" fill-rule="evenodd"></path><path id="path1" d="M234.647 19.555 C 229.961 20.742,225.729 24.106,223.726 28.235 C 221.636 32.545,221.661 32.286,221.737 48.603 C 221.794 60.747,221.738 63.235,221.407 63.235 C 221.188 63.235,220.219 62.958,219.255 62.618 C 210.753 59.629,200.610 65.717,198.334 75.174 C 198.065 76.291,197.810 77.252,197.766 77.308 C 197.723 77.364,196.973 77.143,196.099 76.816 C 186.219 73.119,174.946 80.835,174.207 91.802 L 174.035 94.338 172.385 93.752 C 163.373 90.548,152.944 96.461,150.724 106.033 C 150.026 109.041,150.250 158.957,150.977 162.546 C 154.489 179.881,167.555 190.686,186.696 192.082 C 194.767 192.671,227.531 192.276,230.735 191.551 C 244.241 188.496,255.685 176.933,259.298 162.694 L 260.000 159.925 259.996 138.124 C 259.991 112.511,260.047 112.999,256.452 107.474 L 255.287 105.684 255.215 69.533 C 255.137 29.737,255.245 32.141,253.353 28.364 C 249.997 21.668,241.710 17.765,234.647 19.555 M240.960 29.286 C 242.775 29.905,244.525 31.821,245.127 33.849 C 245.816 36.167,245.831 99.118,245.143 99.118 C 244.899 99.118,243.741 98.842,242.570 98.505 C 241.133 98.092,239.021 97.818,236.072 97.663 C 232.870 97.495,231.631 97.324,231.438 97.025 C 230.790 96.025,231.272 34.670,231.939 33.230 C 233.568 29.710,237.350 28.057,240.960 29.286 M218.078 72.604 C 221.477 74.415,221.749 75.531,221.758 87.721 L 221.765 97.353 214.748 97.353 L 207.732 97.353 207.570 94.191 C 207.333 89.561,207.638 77.356,208.015 76.324 C 209.535 72.170,214.098 70.483,218.078 72.604 M193.697 86.288 C 195.440 87.100,196.859 88.694,197.492 90.551 C 198.064 92.230,198.168 122.073,197.610 124.291 C 196.154 130.073,188.042 131.189,184.861 126.045 C 183.219 123.391,183.010 92.565,184.613 89.559 C 186.423 86.165,190.376 84.742,193.697 86.288 M170.455 103.504 C 174.052 105.567,174.165 106.176,174.058 122.941 L 173.971 136.618 173.057 138.235 C 170.018 143.617,161.660 142.539,160.280 136.587 C 159.829 134.644,159.953 108.585,160.420 107.279 C 161.871 103.213,166.749 101.378,170.455 103.504 M239.412 107.544 C 246.039 108.831,249.492 112.297,250.325 118.499 C 250.976 123.352,250.505 158.951,249.757 161.420 C 246.300 172.817,236.810 181.250,226.219 182.335 C 222.341 182.732,189.321 182.746,185.735 182.351 C 172.581 180.904,163.954 174.074,160.988 162.756 C 159.990 158.947,159.572 149.773,160.412 150.095 C 169.764 153.684,179.494 149.361,182.685 140.199 C 183.628 137.491,183.403 137.588,186.618 138.500 C 193.323 140.402,200.646 137.650,204.564 131.756 C 205.314 130.629,205.986 129.706,206.056 129.706 C 206.127 129.706,206.878 130.093,207.725 130.567 C 208.572 131.041,210.165 131.716,211.264 132.068 C 213.626 132.823,213.626 132.804,211.176 134.472 C 203.827 139.477,199.600 152.041,200.294 166.818 C 200.452 170.200,200.733 170.894,202.466 172.188 C 203.605 173.038,206.395 173.038,207.534 172.188 C 209.454 170.754,209.496 170.594,209.893 163.161 C 210.858 145.082,214.305 140.294,226.359 140.294 C 234.376 140.294,235.113 139.573,235.032 131.810 C 234.983 127.038,234.817 126.318,233.484 125.110 C 232.024 123.787,231.638 123.726,225.151 123.786 C 214.529 123.884,211.512 122.941,209.436 118.872 C 208.282 116.609,207.204 110.357,207.566 108.018 L 207.713 107.066 218.783 106.976 C 232.239 106.867,236.532 106.985,239.412 107.544 " stroke="none" fill="#fbfcfc" fill-rule="evenodd"></path><path id="path2" d="M282.394 21.151 C 282.776 21.461,283.145 21.658,283.214 21.589 C 283.365 21.439,282.312 20.611,281.953 20.598 C 281.813 20.592,282.012 20.842,282.394 21.151 M284.238 22.794 C 284.642 23.199,285.069 23.529,285.185 23.529 C 285.301 23.529,285.086 23.199,284.706 22.794 C 284.326 22.390,283.900 22.059,283.759 22.059 C 283.618 22.059,283.834 22.390,284.238 22.794 M286.051 24.485 C 286.134 24.688,286.560 25.106,286.998 25.415 C 287.793 25.977,287.793 25.976,286.930 25.048 C 285.987 24.032,285.823 23.927,286.051 24.485 M290.311 28.428 C 290.301 28.624,290.039 28.702,289.692 28.611 C 289.301 28.509,286.454 29.688,281.531 31.991 C 277.373 33.936,269.868 37.446,264.853 39.790 L 255.735 44.053 255.585 74.600 C 255.485 94.906,255.534 105.358,255.732 105.777 C 255.895 106.123,256.578 107.314,257.248 108.424 C 257.919 109.533,258.770 111.311,259.141 112.375 L 259.815 114.308 261.599 113.440 C 264.637 111.961,273.259 107.941,273.392 107.941 C 273.678 107.941,297.512 96.658,297.647 96.459 C 297.728 96.340,298.257 96.049,298.824 95.812 C 299.390 95.575,305.081 92.936,311.471 89.947 C 317.860 86.959,326.041 83.142,329.650 81.465 C 333.258 79.789,336.261 78.337,336.321 78.239 C 336.518 77.920,335.985 77.317,335.412 77.209 C 335.104 77.151,334.853 77.084,334.853 77.059 C 334.853 77.034,334.591 76.965,334.270 76.905 C 333.949 76.846,333.643 76.665,333.589 76.503 C 333.535 76.342,333.300 76.283,333.065 76.373 C 332.831 76.463,332.457 76.385,332.233 76.199 C 332.010 76.014,331.713 75.882,331.575 75.907 C 331.437 75.932,331.257 75.930,331.176 75.902 C 331.096 75.875,330.447 75.803,329.736 75.741 C 329.025 75.680,328.363 75.500,328.264 75.341 C 328.166 75.182,327.491 74.989,326.763 74.913 C 326.036 74.837,324.581 74.571,323.529 74.322 C 322.478 74.073,320.294 73.779,318.676 73.668 C 317.059 73.557,315.361 73.439,314.904 73.406 C 314.055 73.344,313.546 72.845,313.529 72.059 C 313.524 71.816,313.253 70.625,312.927 69.412 C 312.600 68.199,312.277 66.861,312.207 66.438 C 312.137 66.016,311.860 65.024,311.591 64.233 C 311.323 63.441,311.074 62.662,311.038 62.500 C 311.002 62.338,310.808 61.809,310.607 61.324 C 310.406 60.838,310.199 60.230,310.147 59.972 C 309.855 58.538,304.743 47.510,304.160 47.059 C 304.056 46.978,303.591 46.203,303.127 45.336 C 300.456 40.347,293.694 31.373,293.164 32.113 C 292.963 32.392,292.935 32.348,293.063 31.954 C 293.188 31.570,292.912 31.080,292.135 30.310 C 291.527 29.706,290.872 28.959,290.679 28.650 C 290.486 28.341,290.321 28.241,290.311 28.428 M244.356 32.794 C 244.505 33.118,244.700 33.581,244.790 33.824 C 244.931 34.205,244.957 34.202,244.977 33.806 C 244.990 33.554,244.794 33.091,244.543 32.777 C 244.093 32.215,244.090 32.215,244.356 32.794 M231.612 64.118 C 231.612 80.051,231.648 86.570,231.691 78.603 C 231.735 70.636,231.735 57.599,231.691 49.632 C 231.648 41.665,231.612 48.184,231.612 64.118 M245.436 67.500 C 245.436 84.971,245.471 92.074,245.515 83.286 C 245.558 74.498,245.558 60.204,245.515 51.522 C 245.471 42.839,245.436 50.029,245.436 67.500 M219.559 61.103 L 218.088 61.856 219.559 62.353 L 221.029 62.851 221.123 62.157 C 221.358 60.410,221.165 60.280,219.559 61.103 M197.794 71.245 C 196.985 71.596,196.252 71.985,196.164 72.110 C 196.076 72.235,194.356 73.128,192.341 74.095 L 188.676 75.853 191.224 75.868 C 192.907 75.877,194.403 76.081,195.636 76.467 C 196.661 76.788,197.516 77.053,197.536 77.055 C 197.556 77.057,197.659 76.513,197.766 75.846 C 197.873 75.179,198.223 74.054,198.546 73.347 C 199.953 70.258,199.969 70.302,197.794 71.245 M219.466 74.012 C 220.050 74.681,220.620 75.518,220.732 75.872 C 220.844 76.226,221.000 76.451,221.078 76.373 C 221.336 76.115,220.363 74.573,219.375 73.676 C 218.410 72.800,218.411 72.802,219.466 74.012 M207.778 87.647 C 207.778 92.743,207.818 94.827,207.867 92.279 C 207.916 89.732,207.916 85.563,207.867 83.015 C 207.818 80.467,207.778 82.551,207.778 87.647 M175.735 81.835 C 173.956 82.651,167.140 85.820,160.588 88.878 C 154.037 91.936,147.750 94.862,146.618 95.381 C 145.485 95.899,144.486 96.420,144.398 96.539 C 144.219 96.777,127.304 104.806,123.824 106.304 C 122.610 106.826,116.456 109.672,110.147 112.627 C 103.838 115.583,97.353 118.610,95.735 119.355 C 94.118 120.100,92.724 120.808,92.638 120.929 C 92.553 121.050,88.119 123.189,82.785 125.682 C 71.801 130.817,49.279 141.298,43.971 143.745 C 42.029 144.640,40.372 145.479,40.288 145.609 C 39.964 146.111,30.619 150.288,30.190 150.123 C 29.885 150.006,29.738 150.125,29.738 150.490 C 29.738 150.786,29.590 151.734,29.410 152.596 C 29.172 153.736,29.171 154.269,29.407 154.553 C 29.646 154.841,29.632 154.976,29.351 155.069 C 28.448 155.370,28.772 165.428,29.865 171.029 C 31.892 181.416,39.679 194.315,46.816 199.108 C 47.410 199.507,47.842 199.922,47.776 200.030 C 47.709 200.138,48.053 200.391,48.540 200.593 C 49.027 200.794,49.522 201.108,49.639 201.289 C 49.926 201.732,53.235 203.884,53.235 203.628 C 53.235 203.517,53.577 203.748,53.994 204.140 C 54.412 204.532,55.040 204.859,55.391 204.866 C 55.742 204.874,55.999 205.031,55.962 205.216 C 55.923 205.410,56.153 205.502,56.504 205.435 C 56.975 205.344,57.070 205.430,56.923 205.812 C 56.819 206.083,56.817 206.222,56.919 206.120 C 57.129 205.911,59.394 206.585,60.735 207.257 C 61.599 207.689,61.736 207.642,67.206 205.064 C 70.279 203.615,73.721 202.029,74.853 201.540 C 78.376 200.019,89.533 194.690,89.697 194.450 C 89.839 194.242,98.091 190.294,98.384 190.294 C 98.453 190.294,103.312 188.028,109.181 185.259 C 115.051 182.489,121.706 179.392,123.971 178.377 C 129.941 175.700,141.271 170.315,141.458 170.066 C 141.615 169.857,145.560 167.962,149.507 166.201 C 151.101 165.489,151.481 165.198,151.354 164.785 C 150.396 161.673,150.296 158.626,150.303 132.500 L 150.309 106.324 150.967 104.395 C 154.141 95.083,164.567 90.068,173.278 93.663 C 173.686 93.832,173.791 93.574,173.953 92.005 C 174.398 87.687,175.283 85.320,177.589 82.279 C 178.417 81.188,179.066 80.307,179.032 80.323 C 178.998 80.339,177.515 81.019,175.735 81.835 M221.599 89.559 C 221.599 93.765,221.640 95.444,221.691 93.291 C 221.741 91.139,221.741 87.697,221.690 85.644 C 221.640 83.591,221.599 85.353,221.599 89.559 M197.784 107.500 C 197.784 115.912,197.822 119.311,197.867 115.053 C 197.913 110.795,197.913 103.913,197.867 99.759 C 197.821 95.605,197.784 99.088,197.784 107.500 M183.960 107.647 C 183.960 115.816,183.998 119.158,184.044 115.074 C 184.090 110.989,184.090 104.305,184.044 100.221 C 183.998 96.136,183.960 99.478,183.960 107.647 M231.551 96.176 C 231.551 96.904,231.608 97.202,231.678 96.838 C 231.748 96.474,231.748 95.879,231.678 95.515 C 231.608 95.151,231.551 95.449,231.551 96.176 M166.695 102.855 C 167.060 102.925,167.590 102.923,167.871 102.849 C 168.152 102.776,167.853 102.718,167.206 102.721 C 166.559 102.724,166.329 102.785,166.695 102.855 M228.590 107.277 C 229.675 107.333,231.528 107.333,232.708 107.277 C 233.888 107.221,233.000 107.175,230.735 107.175 C 228.471 107.174,227.505 107.220,228.590 107.277 M207.741 109.118 C 207.741 110.169,207.795 110.599,207.860 110.074 C 207.925 109.548,207.925 108.688,207.860 108.162 C 207.795 107.636,207.741 108.066,207.741 109.118 M160.127 123.235 C 160.127 127.199,160.169 128.820,160.220 126.838 C 160.271 124.857,160.271 121.614,160.220 119.632 C 160.169 117.651,160.127 119.272,160.127 123.235 M260.433 137.647 C 260.433 148.728,260.470 153.261,260.515 147.721 C 260.559 142.180,260.559 133.114,260.515 127.574 C 260.470 122.033,260.433 126.566,260.433 137.647 M173.912 121.765 C 173.912 122.654,173.967 123.018,174.034 122.574 C 174.102 122.129,174.102 121.401,174.034 120.956 C 173.967 120.511,173.912 120.875,173.912 121.765 M185.294 126.563 C 185.294 126.613,185.724 127.043,186.250 127.519 L 187.206 128.382 186.342 127.426 C 185.537 126.535,185.294 126.335,185.294 126.563 M190.368 129.320 C 190.651 129.394,191.114 129.394,191.397 129.320 C 191.680 129.246,191.449 129.186,190.882 129.186 C 190.316 129.186,190.085 129.246,190.368 129.320 M235.399 133.088 C 235.398 134.544,235.447 135.177,235.509 134.494 C 235.571 133.812,235.571 132.620,235.511 131.847 C 235.450 131.074,235.399 131.632,235.399 133.088 M203.364 133.603 L 202.500 134.559 203.456 133.695 C 203.982 133.220,204.412 132.790,204.412 132.739 C 204.412 132.512,204.169 132.712,203.364 133.603 M32.965 139.955 C 32.485 140.853,32.584 141.103,33.118 140.341 C 33.377 139.971,33.520 139.599,33.436 139.515 C 33.352 139.430,33.140 139.629,32.965 139.955 M169.559 140.898 C 168.912 141.205,168.554 141.459,168.765 141.463 C 169.193 141.472,170.882 140.650,170.882 140.434 C 170.882 140.262,170.969 140.231,169.559 140.898 M223.309 140.505 C 223.754 140.572,224.482 140.572,224.926 140.505 C 225.371 140.437,225.007 140.382,224.118 140.382 C 223.228 140.382,222.864 140.437,223.309 140.505 M166.544 141.673 C 166.827 141.747,167.290 141.747,167.574 141.673 C 167.857 141.599,167.625 141.539,167.059 141.539 C 166.493 141.539,166.261 141.599,166.544 141.673 M178.960 146.544 L 177.500 148.088 179.044 146.629 C 180.479 145.272,180.723 145.000,180.504 145.000 C 180.457 145.000,179.762 145.695,178.960 146.544 M160.094 153.235 C 160.094 154.287,160.148 154.717,160.213 154.191 C 160.278 153.665,160.278 152.805,160.213 152.279 C 160.148 151.754,160.094 152.184,160.094 153.235 M166.103 151.686 C 166.790 151.748,167.915 151.748,168.603 151.686 C 169.290 151.624,168.728 151.573,167.353 151.573 C 165.978 151.573,165.415 151.624,166.103 151.686 M210.107 164.559 C 210.108 166.176,210.158 166.801,210.217 165.946 C 210.277 165.091,210.276 163.768,210.216 163.005 C 210.155 162.242,210.107 162.941,210.107 164.559 M204.485 173.144 C 204.768 173.218,205.232 173.218,205.515 173.144 C 205.798 173.070,205.566 173.009,205.000 173.009 C 204.434 173.009,204.202 173.070,204.485 173.144 M241.604 174.485 L 240.441 175.735 241.691 174.573 C 242.854 173.491,243.076 173.235,242.854 173.235 C 242.806 173.235,242.243 173.798,241.604 174.485 M249.255 180.956 L 247.500 182.794 249.338 181.039 C 250.349 180.073,251.176 179.246,251.176 179.200 C 251.176 178.983,250.886 179.248,249.255 180.956 M160.000 181.029 C 160.879 181.919,161.664 182.647,161.745 182.647 C 161.825 182.647,161.173 181.919,160.294 181.029 C 159.415 180.140,158.630 179.412,158.550 179.412 C 158.469 179.412,159.121 180.140,160.000 181.029 M186.838 182.262 C 187.121 182.336,187.585 182.336,187.868 182.262 C 188.151 182.188,187.919 182.127,187.353 182.127 C 186.787 182.127,186.555 182.188,186.838 182.262 M223.456 182.266 C 223.820 182.336,224.415 182.336,224.779 182.266 C 225.143 182.196,224.846 182.139,224.118 182.139 C 223.390 182.139,223.092 182.196,223.456 182.266 M178.235 223.137 C 177.831 223.201,177.199 223.318,176.832 223.398 L 176.164 223.544 176.244 241.845 C 176.331 261.816,176.275 261.169,178.036 262.474 C 178.920 263.128,184.097 263.382,185.956 262.862 L 186.765 262.636 186.765 252.089 L 186.765 241.542 187.574 241.223 C 189.660 240.400,192.367 240.750,193.529 241.993 L 194.265 242.779 194.359 251.311 C 194.416 256.510,194.570 259.983,194.752 260.203 C 194.916 260.400,194.980 260.677,194.894 260.816 C 193.855 262.498,201.286 264.009,204.510 262.772 C 204.969 262.596,205.009 261.695,204.992 251.969 C 204.973 240.705,205.028 241.209,203.497 238.065 C 202.458 235.932,199.504 233.525,197.388 233.089 C 197.126 233.035,196.382 232.869,195.735 232.721 C 193.790 232.277,190.840 232.304,189.030 232.784 C 188.092 233.032,187.198 233.235,187.044 233.235 C 186.886 233.235,186.765 231.952,186.765 230.277 C 186.765 223.738,184.809 222.102,178.235 223.137 M242.059 223.137 C 241.654 223.201,241.021 223.319,240.651 223.399 L 239.979 223.546 240.063 241.860 C 240.154 261.649,240.081 260.704,241.627 262.256 C 242.615 263.248,248.694 263.504,250.340 262.623 C 250.999 262.270,251.192 229.706,250.552 226.725 C 249.870 223.546,247.044 222.352,242.059 223.137 M345.956 223.284 L 344.706 223.564 344.706 228.287 L 344.706 233.010 344.044 232.814 C 339.611 231.500,332.526 233.243,329.406 236.415 C 322.177 243.763,324.151 257.829,332.980 261.884 C 340.078 265.144,351.285 263.611,354.343 258.961 L 355.304 257.500 355.285 241.589 C 355.264 224.603,355.321 225.320,353.896 223.863 C 353.040 222.988,348.695 222.671,345.956 223.284 M53.088 232.766 C 49.897 233.500,45.882 235.814,45.882 236.918 C 45.882 237.122,45.706 237.358,45.490 237.440 C 44.122 237.966,43.791 243.365,44.965 246.019 C 45.773 247.846,48.306 250.073,49.885 250.345 C 50.191 250.398,50.515 250.540,50.606 250.662 C 50.696 250.783,51.953 251.159,53.400 251.498 C 58.376 252.664,59.067 252.907,59.277 253.567 C 60.045 255.988,53.828 256.393,48.753 254.252 L 46.432 253.274 45.837 253.869 C 39.553 260.153,51.547 266.348,63.023 262.746 C 69.538 260.701,71.956 252.393,67.319 247.980 C 65.745 246.482,59.073 243.711,57.868 244.055 C 57.746 244.089,57.647 243.977,57.647 243.806 C 57.647 243.635,57.530 243.567,57.387 243.656 C 56.408 244.260,54.254 242.615,54.761 241.651 C 55.636 239.988,61.321 240.042,65.181 241.750 L 66.437 242.305 67.220 241.279 C 68.713 239.322,68.556 236.461,66.869 234.870 C 64.678 232.803,57.611 231.724,53.088 232.766 M119.265 232.719 C 113.859 233.612,109.372 236.449,108.964 239.234 C 108.866 239.898,108.828 244.952,108.878 250.465 L 108.971 260.488 109.761 261.524 C 110.995 263.141,116.142 263.839,118.931 262.769 C 119.363 262.603,119.412 261.538,119.412 252.159 L 119.412 241.735 120.440 241.305 C 121.822 240.727,124.338 240.650,125.529 241.148 C 127.282 241.881,127.353 242.290,127.353 251.632 C 127.353 260.970,127.434 261.447,129.196 262.513 C 130.208 263.125,135.091 263.350,136.830 262.864 L 137.631 262.640 137.713 253.035 C 137.800 242.746,137.548 239.748,136.468 238.231 C 136.146 237.779,135.877 237.297,135.871 237.160 C 135.865 237.024,135.256 236.449,134.517 235.882 C 133.779 235.316,133.023 234.714,132.837 234.545 C 130.997 232.866,124.040 231.930,119.265 232.719 M151.324 232.696 C 147.730 233.184,144.384 234.838,144.154 236.240 C 143.433 240.639,144.811 242.353,148.243 241.325 C 152.965 239.909,157.689 240.097,159.191 241.761 C 160.355 243.049,160.274 243.814,158.971 243.860 C 158.404 243.881,157.842 243.920,157.721 243.949 C 157.430 244.017,154.355 244.392,152.500 244.585 C 150.402 244.803,147.838 245.479,146.479 246.172 C 145.375 246.735,143.012 248.818,143.466 248.828 C 143.582 248.831,143.515 248.935,143.319 249.060 C 141.907 249.957,141.885 258.235,143.294 258.235 C 143.424 258.235,143.529 258.405,143.529 258.612 C 143.529 261.807,153.968 264.658,161.029 263.391 C 165.690 262.556,168.731 260.912,169.745 258.680 C 170.364 257.318,170.537 245.440,169.994 241.678 C 168.980 234.671,161.888 231.259,151.324 232.696 M222.647 232.593 C 214.009 233.719,207.895 242.427,209.806 250.882 C 209.861 251.125,210.011 251.853,210.140 252.500 C 211.172 257.681,215.983 261.935,222.309 263.261 C 224.879 263.800,230.155 263.487,231.912 262.692 C 232.721 262.326,233.449 262.008,233.529 261.986 C 235.709 261.377,235.831 256.715,233.719 254.742 C 232.923 253.998,232.893 253.999,230.000 254.825 C 224.654 256.352,220.632 253.752,220.347 248.585 C 220.012 242.522,224.904 239.323,231.186 241.497 C 233.271 242.219,233.583 242.081,234.488 240.040 C 236.661 235.140,230.901 231.517,222.647 232.593 M267.941 232.630 C 259.854 234.143,255.504 239.711,255.519 248.529 C 255.540 260.717,267.493 267.263,279.721 261.785 C 286.503 258.747,289.113 248.017,285.056 239.859 C 284.652 239.047,284.143 238.277,283.925 238.147 C 283.708 238.018,283.529 237.720,283.529 237.485 C 283.529 237.251,283.430 237.059,283.309 237.058 C 283.188 237.058,282.696 236.721,282.216 236.308 C 281.736 235.895,280.876 235.274,280.304 234.927 C 279.732 234.580,279.199 234.204,279.118 234.093 C 278.394 233.093,270.789 232.097,267.941 232.630 M75.221 233.431 L 74.412 233.568 74.375 242.961 C 74.355 248.126,74.319 252.518,74.295 252.721 C 73.968 255.496,76.965 260.216,80.054 261.793 C 86.907 265.288,100.953 263.368,102.748 258.690 C 103.085 257.811,103.030 236.448,102.688 235.549 C 102.047 233.864,100.796 233.382,97.059 233.382 C 92.114 233.382,92.647 232.067,92.647 244.265 C 92.647 256.328,93.021 255.147,89.198 255.147 C 84.939 255.147,84.741 254.640,84.699 243.657 C 84.668 235.329,84.624 235.090,82.910 233.884 C 82.204 233.388,77.206 233.093,75.221 233.431 M293.382 233.367 C 293.221 233.428,292.724 233.558,292.279 233.656 L 291.471 233.835 291.471 243.326 C 291.471 250.819,291.564 253.187,291.915 254.571 C 292.429 256.604,293.225 258.529,293.550 258.529 C 293.674 258.529,294.062 258.993,294.412 259.559 C 294.762 260.125,295.161 260.588,295.299 260.588 C 295.436 260.588,296.207 260.997,297.010 261.497 C 303.420 265.481,318.575 263.498,320.012 258.487 C 320.169 257.941,320.294 252.788,320.294 246.914 C 320.293 233.091,320.423 233.382,314.265 233.382 C 309.491 233.382,310.000 232.089,310.000 244.233 L 310.000 254.660 308.928 255.014 C 307.294 255.553,304.243 255.220,303.378 254.408 C 302.236 253.335,302.120 252.480,302.081 244.821 C 302.040 236.754,301.999 236.078,301.514 235.494 C 301.331 235.273,301.239 235.036,301.308 234.966 C 302.199 234.076,295.226 232.668,293.382 233.367 M273.235 241.259 C 275.944 242.480,277.111 247.496,275.718 251.926 C 274.256 256.573,268.179 256.428,266.656 251.710 C 264.545 245.175,268.386 239.074,273.235 241.259 M344.329 241.230 C 344.963 241.756,344.863 254.210,344.220 254.743 C 343.287 255.518,339.707 255.273,338.296 254.339 C 334.981 252.146,334.683 244.897,337.798 242.213 C 339.414 240.821,343.157 240.257,344.329 241.230 M160.000 253.069 C 160.000 255.594,160.038 255.552,157.547 255.785 C 154.276 256.090,152.353 255.301,152.353 253.654 C 152.353 252.010,154.458 251.114,158.750 250.931 L 160.000 250.878 160.000 253.069 " stroke="none" fill="#acebfc" fill-rule="evenodd"></path><path id="path3" d="M257.941 6.679 C 258.184 6.768,258.614 7.043,258.897 7.290 C 259.180 7.536,259.412 7.633,259.412 7.504 C 259.412 7.149,258.440 6.487,257.941 6.503 C 257.549 6.515,257.549 6.535,257.941 6.679 M259.936 7.707 C 260.377 8.250,261.406 8.578,261.614 8.241 C 261.693 8.113,261.528 7.942,261.247 7.861 C 260.965 7.780,260.471 7.608,260.147 7.478 C 259.638 7.274,259.610 7.305,259.936 7.707 M262.206 8.529 C 262.106 8.691,262.230 8.824,262.483 8.824 C 262.735 8.824,262.941 8.956,262.941 9.118 C 262.941 9.279,263.074 9.412,263.235 9.412 C 263.735 9.412,263.560 8.861,262.959 8.539 C 262.580 8.336,262.328 8.332,262.206 8.529 M263.947 9.374 C 264.060 9.556,264.029 9.706,263.879 9.706 C 263.729 9.706,260.247 11.274,256.141 13.190 C 252.036 15.107,247.400 17.249,245.840 17.950 L 243.004 19.225 245.566 20.477 C 252.545 23.889,255.224 28.743,255.552 38.571 L 255.735 44.054 264.853 39.791 C 269.868 37.446,277.373 33.936,281.531 31.991 C 286.588 29.625,289.296 28.507,289.709 28.616 C 290.109 28.720,290.283 28.656,290.201 28.433 C 290.131 28.243,289.925 28.121,289.743 28.162 C 289.561 28.202,289.412 28.112,289.412 27.961 C 289.412 27.658,286.761 25.000,286.459 25.000 C 286.356 25.000,286.120 24.669,285.936 24.265 C 285.752 23.860,285.460 23.529,285.287 23.529 C 284.854 23.529,283.524 22.163,283.743 21.943 C 283.841 21.845,283.733 21.765,283.503 21.765 C 283.273 21.765,282.537 21.268,281.868 20.662 C 279.718 18.713,278.975 18.110,278.785 18.162 C 278.683 18.189,278.365 17.952,278.078 17.635 C 277.791 17.318,277.370 17.059,277.143 17.059 C 276.916 17.059,276.812 16.926,276.912 16.765 C 277.012 16.603,276.890 16.471,276.641 16.471 C 276.392 16.471,275.505 15.954,274.670 15.322 C 273.835 14.690,272.810 13.995,272.391 13.777 C 271.191 13.154,268.551 11.561,268.102 11.188 C 267.878 11.002,267.428 10.829,267.103 10.805 C 266.777 10.780,266.567 10.669,266.636 10.558 C 266.705 10.447,266.199 10.115,265.513 9.821 C 264.826 9.526,264.147 9.230,264.003 9.163 C 263.859 9.096,263.834 9.191,263.947 9.374 M210.294 34.761 C 203.743 37.841,195.111 41.887,191.113 43.753 C 187.115 45.619,183.806 47.232,183.760 47.339 C 183.714 47.445,181.360 48.606,178.529 49.918 C 175.699 51.230,168.221 54.718,161.912 57.668 C 155.603 60.618,149.846 63.288,149.118 63.602 C 145.919 64.978,131.291 71.933,130.987 72.222 C 130.802 72.398,128.817 73.377,126.575 74.398 C 124.334 75.419,117.338 78.673,111.029 81.630 C 104.721 84.587,99.096 87.197,98.529 87.430 C 96.216 88.383,79.547 96.299,79.400 96.514 C 79.204 96.801,73.654 99.412,73.240 99.412 C 73.076 99.412,72.941 98.926,72.941 98.333 C 72.941 96.769,72.506 97.441,72.466 99.069 C 72.386 102.258,72.393 106.459,72.482 108.309 C 72.571 110.163,72.536 110.296,71.950 110.318 C 70.824 110.362,69.596 110.601,67.353 111.213 C 66.140 111.544,64.949 111.858,64.706 111.911 C 64.463 111.964,63.868 112.162,63.382 112.353 C 62.897 112.543,62.301 112.743,62.059 112.796 C 61.816 112.849,61.022 113.151,60.294 113.466 C 58.261 114.345,57.812 114.509,57.574 114.458 C 57.452 114.433,57.353 114.544,57.353 114.706 C 57.353 114.868,57.154 115.000,56.912 115.000 C 56.669 115.000,56.471 115.110,56.471 115.245 C 56.471 115.380,56.293 115.490,56.075 115.490 C 55.858 115.490,54.854 116.009,53.845 116.642 C 52.836 117.276,51.691 117.967,51.299 118.178 C 50.908 118.389,50.588 118.687,50.588 118.840 C 50.588 118.993,50.404 119.118,50.179 119.118 C 49.953 119.118,49.689 119.325,49.592 119.577 C 49.495 119.830,49.297 119.963,49.151 119.873 C 49.005 119.783,48.809 119.907,48.717 120.149 C 48.624 120.390,48.337 120.588,48.080 120.588 C 47.823 120.588,47.694 120.721,47.794 120.882 C 47.894 121.044,47.847 121.176,47.689 121.176 C 46.776 121.176,41.219 126.881,38.522 130.588 C 37.639 131.801,36.816 132.838,36.693 132.892 C 36.571 132.946,36.471 133.184,36.471 133.421 C 36.471 133.658,36.007 134.576,35.441 135.461 C 34.875 136.346,34.412 137.200,34.412 137.359 C 34.412 137.517,34.257 137.647,34.069 137.647 C 33.880 137.647,33.809 137.731,33.911 137.833 C 34.013 137.935,33.942 138.299,33.753 138.642 C 33.564 138.984,33.396 139.397,33.379 139.559 C 33.362 139.721,32.989 140.623,32.551 141.564 C 32.113 142.505,31.831 143.398,31.924 143.549 C 32.017 143.700,31.946 143.824,31.765 143.824 C 31.584 143.824,31.512 143.947,31.605 144.097 C 31.698 144.248,31.631 144.460,31.455 144.568 C 31.280 144.677,31.206 144.946,31.291 145.167 C 31.375 145.388,31.316 145.649,31.159 145.746 C 31.001 145.843,30.949 146.046,31.042 146.197 C 31.135 146.347,31.056 146.471,30.865 146.471 C 30.664 146.471,30.584 146.717,30.673 147.059 C 30.758 147.382,30.729 147.647,30.610 147.647 C 30.490 147.647,30.387 147.813,30.380 148.015 C 30.373 148.217,30.274 148.732,30.160 149.159 C 30.037 149.618,30.081 150.015,30.267 150.130 C 30.575 150.321,39.987 146.075,40.288 145.609 C 40.372 145.479,42.029 144.640,43.971 143.745 C 49.279 141.298,71.801 130.817,82.785 125.682 C 88.119 123.189,92.553 121.050,92.638 120.929 C 92.724 120.808,94.118 120.100,95.735 119.355 C 97.353 118.610,103.838 115.583,110.147 112.627 C 116.456 109.672,122.610 106.826,123.824 106.304 C 127.304 104.806,144.219 96.777,144.398 96.539 C 144.486 96.420,145.485 95.899,146.618 95.381 C 147.750 94.862,153.110 92.361,158.529 89.823 C 163.949 87.284,170.788 84.120,173.728 82.792 C 176.668 81.463,179.735 79.891,180.543 79.298 C 182.286 78.018,185.298 76.606,186.924 76.305 C 188.100 76.088,195.870 72.544,196.165 72.091 C 196.252 71.956,197.143 71.530,198.145 71.143 C 199.648 70.564,200.083 70.235,200.626 69.265 C 203.137 64.778,209.057 61.702,215.015 61.789 C 217.826 61.830,218.261 61.762,219.631 61.067 L 221.144 60.300 221.267 61.694 C 221.334 62.461,221.374 56.404,221.356 48.235 C 221.324 33.581,221.332 33.357,221.981 31.471 C 222.703 29.374,222.754 29.107,222.426 29.140 C 222.305 29.153,216.846 31.682,210.294 34.761 M197.715 76.471 C 197.715 77.037,197.776 77.268,197.850 76.985 C 197.924 76.702,197.924 76.239,197.850 75.956 C 197.776 75.673,197.715 75.904,197.715 76.471 M72.941 94.265 C 72.941 94.507,73.074 94.706,73.235 94.706 C 73.397 94.706,73.529 94.507,73.529 94.265 C 73.529 94.022,73.397 93.824,73.235 93.824 C 73.074 93.824,72.941 94.022,72.941 94.265 M309.838 244.412 C 309.838 250.154,309.878 252.504,309.926 249.632 C 309.974 246.761,309.974 242.063,309.926 239.191 C 309.878 236.320,309.838 238.669,309.838 244.412 " stroke="none" fill="#b4f4fc" fill-rule="evenodd"></path><path id="path4" d="M216.618 0.468 C 212.682 0.838,206.615 1.777,203.676 2.471 C 203.515 2.509,202.919 2.641,202.353 2.765 C 199.495 3.390,191.592 5.931,188.971 7.067 C 182.258 9.977,170.800 16.510,170.343 17.688 C 170.289 17.827,170.081 17.941,169.881 17.941 C 169.681 17.941,169.230 18.272,168.879 18.676 C 168.527 19.081,168.106 19.412,167.943 19.412 C 167.780 19.412,167.402 19.643,167.103 19.926 C 166.804 20.210,165.649 21.235,164.536 22.206 C 161.110 25.193,156.628 29.790,153.770 33.249 C 151.719 35.732,150.000 37.933,150.000 38.078 C 150.000 38.158,149.471 38.921,148.825 39.773 C 148.178 40.626,147.649 41.484,147.648 41.681 C 147.648 41.877,147.382 42.180,147.059 42.353 C 146.735 42.526,146.471 42.932,146.471 43.255 C 146.471 43.578,146.273 43.918,146.031 44.011 C 145.789 44.103,145.674 44.313,145.775 44.475 C 145.875 44.638,145.785 44.879,145.573 45.009 C 145.362 45.140,145.153 45.487,145.110 45.780 C 145.067 46.073,144.892 46.359,144.722 46.416 C 144.551 46.473,144.412 46.681,144.412 46.877 C 144.412 47.074,144.246 47.401,144.044 47.603 C 143.842 47.805,143.659 48.063,143.637 48.176 C 143.494 48.922,143.130 49.706,142.927 49.706 C 142.698 49.706,142.388 50.400,142.335 51.029 C 142.322 51.191,142.137 51.522,141.924 51.765 C 141.413 52.346,140.294 54.848,140.294 55.408 C 140.294 55.650,140.153 55.935,139.980 56.042 C 139.807 56.149,139.739 56.426,139.828 56.659 C 139.917 56.891,139.808 57.151,139.586 57.236 C 139.364 57.321,139.245 57.629,139.321 57.920 C 139.403 58.233,139.264 58.523,138.979 58.633 C 138.715 58.734,138.566 58.708,138.648 58.575 C 138.773 58.373,134.705 56.833,134.486 57.000 C 134.446 57.030,133.917 56.868,133.310 56.639 C 132.297 56.258,130.498 55.834,129.412 55.721 C 129.169 55.696,128.904 55.646,128.824 55.609 C 126.377 54.511,115.041 54.947,109.465 56.355 C 104.311 57.656,103.473 57.967,98.574 60.399 C 95.025 62.161,95.000 62.175,95.000 62.440 C 95.000 62.573,94.868 62.600,94.706 62.500 C 94.544 62.400,94.412 62.458,94.412 62.630 C 94.412 62.801,94.227 62.941,94.002 62.941 C 93.777 62.941,93.513 63.148,93.416 63.401 C 93.319 63.654,93.106 63.778,92.943 63.678 C 92.780 63.577,92.647 63.624,92.647 63.782 C 92.647 63.940,92.166 64.367,91.578 64.730 C 90.991 65.093,90.142 65.733,89.693 66.151 C 89.243 66.569,88.566 67.182,88.188 67.512 C 87.288 68.297,84.155 71.687,83.300 72.802 C 81.227 75.505,80.045 77.202,80.158 77.314 C 80.228 77.384,80.104 77.587,79.882 77.765 C 79.368 78.177,76.750 83.216,76.046 85.147 C 75.752 85.956,75.396 86.743,75.255 86.897 C 75.115 87.051,75.000 87.456,75.000 87.797 C 75.000 88.138,74.820 88.663,74.600 88.965 C 74.379 89.266,74.259 89.741,74.332 90.020 C 74.405 90.300,74.239 90.873,73.963 91.294 C 73.677 91.731,73.598 92.059,73.780 92.059 C 73.956 92.059,74.023 92.257,73.931 92.498 C 73.838 92.740,73.610 92.853,73.425 92.749 C 73.172 92.608,73.172 92.652,73.425 92.926 C 73.786 93.318,73.445 95.109,72.875 95.809 C 72.665 96.066,72.685 96.176,72.941 96.176 C 73.189 96.176,73.216 96.295,73.023 96.544 C 72.681 96.987,72.891 99.412,73.271 99.412 C 73.664 99.412,79.213 96.788,79.400 96.514 C 79.547 96.299,96.216 88.383,98.529 87.430 C 99.096 87.197,104.721 84.587,111.029 81.630 C 117.338 78.673,124.334 75.419,126.575 74.398 C 128.817 73.377,130.802 72.398,130.987 72.222 C 131.291 71.933,145.919 64.978,149.118 63.602 C 149.846 63.288,155.603 60.618,161.912 57.668 C 168.221 54.718,175.699 51.230,178.529 49.918 C 181.360 48.606,183.714 47.445,183.760 47.339 C 183.806 47.232,187.115 45.619,191.113 43.753 C 195.111 41.887,203.795 37.828,210.411 34.734 C 217.027 31.639,222.496 29.163,222.564 29.231 C 222.632 29.299,222.381 30.261,222.006 31.369 L 221.324 33.382 221.421 48.162 C 221.475 56.360,221.405 62.941,221.264 62.941 C 221.124 62.941,220.256 62.676,219.335 62.353 C 213.352 60.250,203.381 63.752,200.914 68.824 C 200.623 69.421,200.679 69.394,201.215 68.676 C 205.227 63.307,213.439 60.575,219.335 62.647 C 220.256 62.971,221.188 63.235,221.407 63.235 C 221.738 63.235,221.794 60.747,221.737 48.603 C 221.677 35.665,221.726 33.766,222.162 32.206 C 225.446 20.465,237.900 15.503,247.685 22.038 C 248.635 22.672,249.412 23.101,249.411 22.992 C 249.410 22.649,246.695 20.938,244.785 20.076 L 242.952 19.249 245.814 17.962 C 247.388 17.254,252.036 15.107,256.141 13.190 C 260.247 11.274,263.729 9.706,263.879 9.706 C 264.029 9.706,264.074 9.579,263.979 9.425 C 263.883 9.270,263.610 9.218,263.373 9.309 C 263.135 9.400,262.941 9.328,262.941 9.149 C 262.941 8.970,262.743 8.824,262.500 8.824 C 262.257 8.824,262.059 8.708,262.059 8.566 C 262.059 8.425,261.724 8.309,261.314 8.309 C 260.904 8.309,260.331 8.093,260.040 7.830 C 259.749 7.567,259.441 7.421,259.356 7.506 C 259.271 7.592,259.034 7.460,258.829 7.213 C 258.625 6.966,258.275 6.765,258.052 6.765 C 257.829 6.765,257.647 6.610,257.647 6.422 C 257.647 6.233,257.572 6.153,257.480 6.245 C 257.389 6.337,256.551 6.112,255.618 5.747 C 254.685 5.381,253.205 4.914,252.329 4.709 C 251.452 4.503,250.599 4.228,250.432 4.097 C 250.265 3.966,249.802 3.793,249.403 3.712 C 249.003 3.632,247.419 3.237,245.882 2.835 C 243.025 2.087,239.353 1.377,236.471 1.016 C 235.581 0.905,234.588 0.749,234.265 0.671 C 233.532 0.493,218.223 0.318,216.618 0.468 M251.406 25.322 C 255.378 30.677,255.110 27.771,255.294 67.500 L 255.452 101.618 255.520 68.335 C 255.601 28.639,255.698 29.633,251.290 24.826 L 249.966 23.382 251.406 25.322 M234.665 30.017 L 233.971 30.623 234.853 30.106 C 236.014 29.426,236.032 29.412,235.670 29.412 C 235.499 29.412,235.047 29.684,234.665 30.017 M241.935 29.966 C 242.433 30.270,243.274 31.031,243.804 31.656 C 244.334 32.282,244.628 32.518,244.458 32.181 C 244.058 31.387,241.872 29.411,241.396 29.413 C 241.194 29.413,241.437 29.663,241.935 29.966 M232.350 32.426 C 232.029 32.952,231.766 33.504,231.766 33.652 C 231.764 33.987,231.806 33.932,232.584 32.574 C 233.357 31.223,233.159 31.098,232.350 32.426 M231.318 66.618 C 231.318 83.279,231.354 90.052,231.397 81.669 C 231.440 73.285,231.440 59.653,231.397 51.375 C 231.354 43.097,231.318 49.956,231.318 66.618 M209.540 73.897 L 208.676 74.853 209.632 73.989 C 210.158 73.514,210.588 73.084,210.588 73.033 C 210.588 72.806,210.346 73.006,209.540 73.897 M207.830 76.629 C 207.730 76.892,207.662 77.460,207.681 77.892 C 207.706 78.479,207.772 78.381,207.944 77.500 C 208.188 76.250,208.134 75.838,207.830 76.629 M221.571 79.853 C 221.572 81.147,221.624 81.640,221.686 80.948 C 221.748 80.256,221.748 79.198,221.684 78.595 C 221.621 77.993,221.570 78.559,221.571 79.853 M180.694 79.211 C 179.746 79.910,178.587 81.002,178.118 81.638 C 177.390 82.625,177.476 82.574,178.706 81.289 C 179.499 80.462,180.710 79.419,181.397 78.971 C 182.531 78.233,182.852 77.941,182.532 77.941 C 182.469 77.941,181.642 78.513,180.694 79.211 M189.730 85.695 C 189.798 85.753,190.647 85.873,191.618 85.961 C 192.683 86.057,193.149 86.023,192.794 85.875 C 192.228 85.639,189.480 85.477,189.730 85.695 M194.265 86.657 C 194.426 86.800,195.022 87.312,195.587 87.796 L 196.616 88.676 195.881 87.841 C 195.477 87.381,194.882 86.868,194.559 86.702 C 194.235 86.535,194.103 86.515,194.265 86.657 M185.867 87.868 L 184.853 88.971 185.956 87.957 C 186.982 87.014,187.194 86.765,186.969 86.765 C 186.920 86.765,186.424 87.261,185.867 87.868 M207.457 90.147 C 207.456 91.603,207.506 92.236,207.568 91.553 C 207.630 90.870,207.630 89.679,207.569 88.906 C 207.509 88.133,207.458 88.691,207.457 90.147 M173.898 93.382 C 173.901 94.029,173.961 94.259,174.032 93.894 C 174.102 93.528,174.099 92.998,174.026 92.717 C 173.952 92.436,173.894 92.735,173.898 93.382 M164.118 92.850 C 163.156 93.011,160.524 93.859,160.643 93.969 C 160.694 94.016,161.662 93.812,162.794 93.515 C 166.018 92.670,169.915 92.836,173.088 93.955 C 173.676 94.162,173.676 94.162,173.088 93.790 C 171.659 92.886,166.889 92.386,164.118 92.850 M158.440 94.994 C 157.680 95.475,157.059 95.955,157.059 96.059 C 157.059 96.163,157.225 96.111,157.428 95.942 C 157.630 95.774,158.391 95.296,159.119 94.881 C 159.846 94.465,160.302 94.123,160.131 94.121 C 159.961 94.119,159.200 94.512,158.440 94.994 M155.136 97.721 L 153.676 99.265 155.221 97.805 C 156.655 96.449,156.900 96.176,156.680 96.176 C 156.634 96.176,155.939 96.871,155.136 97.721 M234.200 97.569 C 234.973 97.630,236.164 97.630,236.847 97.568 C 237.530 97.506,236.897 97.456,235.441 97.457 C 233.985 97.458,233.427 97.509,234.200 97.569 M183.659 110.735 C 183.659 115.265,183.700 117.077,183.749 114.762 C 183.799 112.447,183.799 108.741,183.749 106.526 C 183.699 104.312,183.659 106.206,183.659 110.735 M162.417 104.338 C 161.713 105.026,161.702 105.059,162.339 104.563 C 163.594 103.585,163.654 103.529,163.446 103.529 C 163.335 103.529,162.872 103.893,162.417 104.338 M160.725 106.491 C 160.468 106.987,160.300 107.510,160.350 107.653 C 160.400 107.797,160.663 107.391,160.934 106.751 C 161.518 105.372,161.388 105.209,160.725 106.491 M256.313 107.279 C 256.766 107.967,257.193 108.529,257.262 108.529 C 257.474 108.529,256.348 106.739,255.906 106.374 C 255.676 106.185,255.859 106.592,256.313 107.279 M230.520 106.978 C 231.049 107.043,231.843 107.042,232.285 106.975 C 232.727 106.908,232.294 106.854,231.324 106.856 C 230.353 106.857,229.991 106.912,230.520 106.978 M212.445 107.279 C 215.165 107.328,219.533 107.327,222.151 107.279 C 224.769 107.230,222.544 107.190,217.206 107.190 C 211.868 107.191,209.725 107.230,212.445 107.279 M235.368 107.269 C 235.813 107.337,236.540 107.337,236.985 107.269 C 237.430 107.202,237.066 107.147,236.176 107.147 C 235.287 107.147,234.923 107.202,235.368 107.269 M241.765 108.382 C 243.108 108.899,243.636 108.892,242.500 108.372 C 242.015 108.150,241.419 107.972,241.176 107.977 C 240.934 107.982,241.199 108.164,241.765 108.382 M160.116 112.206 C 160.117 114.471,160.163 115.358,160.219 114.178 C 160.275 112.998,160.274 111.145,160.218 110.061 C 160.161 108.976,160.116 109.941,160.116 112.206 M207.721 111.912 C 207.724 112.559,207.785 112.789,207.855 112.423 C 207.925 112.057,207.923 111.528,207.849 111.247 C 207.776 110.965,207.718 111.265,207.721 111.912 M259.612 114.118 C 259.732 114.522,259.906 124.978,259.999 137.353 L 260.168 159.853 260.158 137.353 C 260.149 119.685,260.066 114.695,259.771 114.118 L 259.395 113.382 259.612 114.118 M208.539 116.471 C 208.533 117.126,209.878 119.891,210.337 120.167 C 210.672 120.369,210.672 120.329,210.338 119.917 C 210.119 119.647,209.626 118.662,209.242 117.728 C 208.858 116.794,208.542 116.228,208.539 116.471 M250.433 138.235 C 250.433 148.669,250.470 152.938,250.515 147.721 C 250.560 142.504,250.560 133.967,250.515 128.750 C 250.470 123.533,250.433 127.801,250.433 138.235 M183.892 123.235 C 183.892 123.801,183.952 124.033,184.026 123.750 C 184.100 123.467,184.100 123.004,184.026 122.721 C 183.952 122.438,183.892 122.669,183.892 123.235 M220.368 123.748 C 221.783 123.802,224.099 123.802,225.515 123.748 C 226.930 123.694,225.772 123.650,222.941 123.650 C 220.110 123.650,218.952 123.694,220.368 123.748 M233.711 125.281 C 234.053 125.692,234.479 126.294,234.658 126.618 C 234.836 126.941,234.986 127.038,234.991 126.834 C 234.996 126.629,234.570 126.028,234.044 125.497 C 233.518 124.966,233.368 124.869,233.711 125.281 M235.109 130.294 C 235.109 131.993,235.157 132.688,235.217 131.838 C 235.276 130.989,235.276 129.599,235.217 128.750 C 235.157 127.901,235.109 128.596,235.109 130.294 M160.107 133.088 C 160.108 134.706,160.158 135.330,160.217 134.475 C 160.277 133.621,160.276 132.297,160.216 131.534 C 160.155 130.771,160.107 131.471,160.107 133.088 M211.324 132.353 C 211.647 132.492,212.110 132.606,212.353 132.606 C 212.631 132.606,212.577 132.512,212.206 132.353 C 211.882 132.214,211.419 132.100,211.176 132.100 C 210.898 132.100,210.953 132.194,211.324 132.353 M235.040 135.496 C 234.984 136.803,234.509 137.938,233.584 138.971 L 232.794 139.853 233.757 138.983 C 234.798 138.041,235.432 136.434,235.216 135.281 C 235.101 134.672,235.074 134.706,235.040 135.496 M208.514 136.397 L 207.500 137.500 208.603 136.486 C 209.630 135.543,209.841 135.294,209.617 135.294 C 209.567 135.294,209.071 135.790,208.514 136.397 M160.307 136.765 C 160.295 137.257,161.357 139.118,161.649 139.118 C 161.752 139.118,161.692 138.943,161.515 138.730 C 161.338 138.516,160.996 137.888,160.755 137.333 C 160.514 136.778,160.312 136.522,160.307 136.765 M197.941 137.500 C 197.213 137.890,196.722 138.215,196.850 138.222 C 197.162 138.240,199.412 137.084,199.412 136.906 C 199.412 136.711,199.424 136.706,197.941 137.500 M183.337 138.101 C 183.241 138.351,183.245 138.637,183.346 138.738 C 183.447 138.839,183.529 138.711,183.529 138.453 C 183.529 138.195,183.761 137.924,184.044 137.850 C 184.526 137.724,184.526 137.713,184.035 137.681 C 183.747 137.662,183.433 137.851,183.337 138.101 M190.074 139.328 C 190.518 139.396,191.246 139.396,191.691 139.328 C 192.136 139.261,191.772 139.206,190.882 139.206 C 189.993 139.206,189.629 139.261,190.074 139.328 M226.838 140.510 C 227.607 140.571,228.864 140.571,229.632 140.510 C 230.401 140.450,229.772 140.400,228.235 140.400 C 226.699 140.400,226.070 140.450,226.838 140.510 M212.243 148.523 C 211.579 150.182,211.681 150.429,212.380 148.854 C 212.695 148.143,212.901 147.509,212.837 147.445 C 212.773 147.381,212.506 147.866,212.243 148.523 M160.000 150.735 C 160.000 151.140,160.051 151.471,160.113 151.471 C 160.175 151.471,160.289 151.140,160.366 150.735 C 160.443 150.331,160.393 150.000,160.253 150.000 C 160.114 150.000,160.000 150.331,160.000 150.735 M211.345 151.050 C 211.236 151.481,211.205 151.891,211.274 151.960 C 211.343 152.029,211.488 151.734,211.597 151.303 C 211.705 150.871,211.737 150.462,211.667 150.393 C 211.598 150.323,211.453 150.619,211.345 151.050 M160.091 156.618 C 160.093 157.588,160.148 157.950,160.213 157.421 C 160.279 156.893,160.277 156.098,160.210 155.656 C 160.143 155.215,160.089 155.647,160.091 156.618 M210.362 156.471 C 210.362 157.037,210.423 157.268,210.497 156.985 C 210.571 156.702,210.571 156.239,210.497 155.956 C 210.423 155.673,210.362 155.904,210.362 156.471 M150.362 158.529 C 150.362 159.096,150.423 159.327,150.497 159.044 C 150.571 158.761,150.571 158.298,150.497 158.015 C 150.423 157.732,150.362 157.963,150.362 158.529 M210.097 159.853 C 210.098 160.985,210.151 161.412,210.215 160.802 C 210.278 160.192,210.277 159.266,210.212 158.743 C 210.147 158.221,210.095 158.721,210.097 159.853 M160.362 159.412 C 160.362 159.978,160.423 160.210,160.497 159.926 C 160.571 159.643,160.571 159.180,160.497 158.897 C 160.423 158.614,160.362 158.846,160.362 159.412 M200.091 161.618 C 200.093 162.588,200.148 162.950,200.213 162.421 C 200.279 161.893,200.277 161.098,200.210 160.656 C 200.143 160.215,200.089 160.647,200.091 161.618 M160.647 161.029 C 160.647 161.353,160.753 161.949,160.882 162.353 C 161.069 162.935,161.118 162.966,161.118 162.500 C 161.118 162.176,161.012 161.581,160.882 161.176 C 160.696 160.594,160.647 160.564,160.647 161.029 M161.198 163.403 C 161.168 163.848,162.101 166.527,162.238 166.389 C 162.300 166.327,162.096 165.559,161.785 164.682 C 161.474 163.806,161.210 163.230,161.198 163.403 M209.813 166.324 C 209.814 167.941,209.863 168.565,209.923 167.711 C 209.983 166.856,209.982 165.533,209.922 164.770 C 209.861 164.007,209.813 164.706,209.813 166.324 M200.103 166.471 C 200.103 167.846,200.153 168.408,200.215 167.721 C 200.277 167.033,200.277 165.908,200.215 165.221 C 200.153 164.533,200.103 165.096,200.103 166.471 M162.353 166.873 C 162.353 167.191,163.815 170.000,163.980 170.000 C 164.061 170.000,163.779 169.305,163.352 168.456 C 162.531 166.823,162.353 166.540,162.353 166.873 M167.059 173.971 C 167.937 174.860,168.723 175.588,168.803 175.588 C 168.884 175.588,168.232 174.860,167.353 173.971 C 166.474 173.081,165.689 172.353,165.608 172.353 C 165.527 172.353,166.180 173.081,167.059 173.971 M236.825 178.361 C 235.458 179.327,235.266 179.604,236.420 178.943 C 236.958 178.635,237.537 178.217,237.706 178.015 C 238.140 177.495,237.936 177.575,236.825 178.361 M158.529 179.210 C 158.529 179.260,158.960 179.690,159.485 180.166 L 160.441 181.029 159.577 180.074 C 158.772 179.183,158.529 178.982,158.529 179.210 M234.118 180.000 C 233.551 180.310,233.194 180.569,233.323 180.576 C 233.635 180.592,235.294 179.730,235.294 179.551 C 235.294 179.359,235.277 179.365,234.118 180.000 M178.088 180.882 C 178.412 181.021,178.875 181.135,179.118 181.135 C 179.396 181.135,179.341 181.042,178.971 180.882 C 178.647 180.743,178.184 180.630,177.941 180.630 C 177.663 180.630,177.717 180.723,178.088 180.882 M246.898 183.015 L 245.735 184.265 246.985 183.102 C 248.148 182.021,248.370 181.765,248.148 181.765 C 248.100 181.765,247.537 182.327,246.898 183.015 M184.930 182.267 C 185.296 182.337,185.825 182.335,186.106 182.261 C 186.388 182.187,186.088 182.130,185.441 182.133 C 184.794 182.136,184.564 182.196,184.930 182.267 M225.809 182.266 C 226.173 182.336,226.768 182.336,227.132 182.266 C 227.496 182.196,227.199 182.139,226.471 182.139 C 225.743 182.139,225.445 182.196,225.809 182.266 M196.544 182.573 C 201.680 182.618,210.085 182.618,215.221 182.573 C 220.357 182.528,216.154 182.491,205.882 182.491 C 195.610 182.491,191.408 182.528,196.544 182.573 M186.548 192.270 C 186.995 192.337,187.657 192.336,188.019 192.266 C 188.380 192.196,188.015 192.141,187.206 192.143 C 186.397 192.145,186.101 192.202,186.548 192.270 M225.518 192.267 C 225.884 192.337,226.413 192.335,226.695 192.261 C 226.976 192.187,226.676 192.130,226.029 192.133 C 225.382 192.136,225.152 192.196,225.518 192.267 " stroke="none" fill="#bcf3fc" fill-rule="evenodd"></path></g></svg>